<?xml version="1.0" standalone="no"?><!DOCTYPE svg PUBLIC "-//W3C//DTD SVG 1.1//EN" "http://www.w3.org/Graphics/SVG/1.1/DTD/svg11.dtd"><svg t="1715624048548" class="icon" viewBox="0 0 1024 1024" version="1.1" xmlns="http://www.w3.org/2000/svg" p-id="1536" xmlns:xlink="http://www.w3.org/1999/xlink" width="200" height="200"><path d="M982.45236 698.411591h-777.715544c-8.530701 0-17.061401 2.132675-25.592102 6.398026-9.241592 4.26535-17.772293 11.374268-25.592102 19.904968-7.819809 9.241592-14.217834 19.904968-19.194077 31.990128-4.976242 12.085159-7.108917 26.302994-7.108917 41.942611s2.132675 30.568344 6.398026 44.075287c4.26535 13.506943 9.241592 25.592102 16.350509 36.255478 6.398025 10.663376 14.928726 18.483185 24.881211 24.88121 9.952484 5.687134 19.904968 9.241592 31.279235 9.241592h776.293761c-9.241592-9.241592-17.061401-19.194076-23.459427-30.568344-5.687134-9.952484-11.374268-21.326752-16.35051-34.833694s-7.108917-29.146561-7.108917-46.207962c0-19.194076 2.132675-35.544586 7.108917-48.340637 4.976242-12.796051 9.952484-23.459427 16.35051-31.279236 6.398025-9.241592 14.217834-17.061401 23.459427-23.459427z m19.904968 325.588409h-873.685926c-63.980255 0-128.671402-63.980255-128.671402-128.671402V128.27643c0-62.558472 63.980255-127.96051 127.96051-127.96051h268.006179c38.388153 0 77.487198 0.710892 117.297134 0 41.23172-0.710892 80.330765 0 118.008026 0h263.029937c63.269363 0 128.671402 65.402038 128.671402 127.96051v497.624206h-571.556945c-47.629745 0-90.99414 0.710892-128.671401 0-37.677261-0.710892-68.956497 0-93.837708 0h-41.231719c-15.639618 0-31.279236 3.554459-46.207962 12.796051-14.928726 9.241592-28.435669 21.326752-40.520828 37.677261-12.085159 16.35051-22.037643 34.833694-29.146561 56.160446-7.819809 21.326752-11.374268 43.364395-11.374268 66.823822 0 28.435669 4.26535 54.027771 12.08516 76.776306 7.819809 22.748535 18.483185 41.942612 30.568344 57.582229 12.796051 15.639618 27.013885 27.724777 41.942611 36.255478 15.639618 8.530701 30.568344 12.796051 45.497071 12.796051l811.838346 0.710892c10.663376 0 21.326752 9.952484 21.326752 19.194076 0 12.085159-8.530701 21.326752-21.326752 21.326752z m-504.733123-1023.68408v435.065734l86.728791-121.562484 85.307006 121.562484v-435.065734H497.624205z" fill="#1296db" p-id="1537"></path></svg>