<?xml version="1.0" standalone="no"?><!DOCTYPE svg PUBLIC "-//W3C//DTD SVG 1.1//EN" "http://www.w3.org/Graphics/SVG/1.1/DTD/svg11.dtd"><svg t="1715330716420" class="icon" viewBox="0 0 1024 1024" version="1.1" xmlns="http://www.w3.org/2000/svg" p-id="6662" xmlns:xlink="http://www.w3.org/1999/xlink" width="200" height="200"><path d="M976.74178773 676.38183324l-741.0168576 0q-11.77916907 0-24.62917333 6.4250016t-24.09375573 19.2750048-18.20417174 30.5187584-6.96041813 40.15626026 5.88958507 41.76251094 15.527088 34.2666752 23.55834026 23.55834026 29.9833408 8.56666987l739.9460256 0q-12.8500032-12.8500032-22.48750613-28.91250667-8.56666987-13.92083627-15.527088-33.19584213t-6.96041813-43.90417813q0-27.8416736 6.96041813-46.04584427t15.527088-29.9833408q9.63750187-12.8500032 22.48750613-22.48750613zM976.74178773 968.7194087q0 18.20417173-23.55834026 18.20417174l-782.7793696 0q-36.4083424 0-61.03751574-14.9916704t-40.15626026-41.22709334-21.95208854-62.6437664-6.4250016-78.1708544l0-621.0834944q0-82.45418773 43.90417814-119.39794773t125.2875328-36.94375893l36.4083424 0 72.81668586 0 99.5875264 0q54.61251413 0 111.902112-0.53541654t111.902112-0.53541653l100.6583584 0 74.95835307 0 37.47917653 0q29.9833408 0 52.47084694 12.31458667t37.47917653 34.2666752 23.02292267 51.9354304 8.03125226 64.250016l0 433.68761173q-204.52922027 0-368.36676266-1.07083413l-137.06670187 0q-68.5333504 0-122.61044907-0.53541654t-89.41460693-0.53541653l-39.62084373 0q-22.48750613 0-43.90417814 13.3854208t-38.5500096 36.4083424-27.8416736 53.54168-10.708336 63.71459947q0 40.69167787 11.24375254 73.35210133t29.44792426 55.14793067 40.15626027 34.8020928 43.3687616 12.31458666l731.37935573 0q8.56666987 0 15.527088 4.81875094t6.96041814 15.527088zM515.21250133 11.39416177l0 414.41260693 82.45418774-115.65002986 81.38335466 115.65002986 0-414.41260693-163.8375424 0z" fill="#1296db" p-id="6663"></path></svg>